<svg width="248" height="181" viewBox="0 0 248 181" fill="none" xmlns="http://www.w3.org/2000/svg">
<path d="M9.31445 179.518L47.2128 158.684" stroke="#D76700" stroke-width="3"/>
<path d="M25.0327 140.329L9.89669 179.408" stroke="#D76700" stroke-width="3"/>
<path d="M246.5 90C246.5 114.253 232.959 136.343 210.8 152.426C188.643 168.507 157.96 178.5 124 178.5C90.0403 178.5 59.3566 168.507 37.1999 152.426C15.0415 136.343 1.5 114.253 1.5 90C1.5 65.7467 15.0415 43.657 37.1999 27.5743C59.3566 11.4928 90.0403 1.5 124 1.5C157.96 1.5 188.643 11.4928 210.8 27.5743C232.959 43.657 246.5 65.7467 246.5 90Z" stroke="#D76700" stroke-width="3"/>
</svg>
